<svg width="30" height="30" viewBox="0 0 30 30" fill="none" xmlns="http://www.w3.org/2000/svg">
<g id="akar-icons:youtube-fill" clip-path="url(#clip0_12_114)">
<rect id="Rectangle 6" x="5" y="7" width="20" height="13" fill="white"/>
<g id="Group">
<g id="Group_2">
<path id="Vector" d="M29.375 8.13375C29.2051 7.52779 28.8742 6.97919 28.4175 6.54625C27.9478 6.10001 27.3722 5.7808 26.745 5.61875C24.3975 5 14.9925 5 14.9925 5C11.0716 4.95539 7.15176 5.1516 3.25498 5.5875C2.62772 5.76152 2.05318 6.08786 1.58248 6.5375C1.11998 6.9825 0.784978 7.53125 0.609978 8.1325C0.189594 10.3972 -0.014657 12.6967 -2.1978e-05 15C-0.015022 17.3013 0.188728 19.6 0.609978 21.8675C0.781228 22.4663 1.11498 23.0125 1.57873 23.4538C2.04248 23.895 2.61998 24.2138 3.25498 24.3825C5.63373 25 14.9925 25 14.9925 25C18.9183 25.0447 22.8432 24.8485 26.745 24.4125C27.3722 24.2505 27.9478 23.9312 28.4175 23.485C28.88 23.0438 29.2087 22.495 29.3737 21.8975C29.8051 19.6337 30.0148 17.3332 30 15.0288C30.0324 12.7145 29.823 10.4032 29.375 8.1325V8.13375ZM12.0025 19.28V10.7213L19.8275 15.0013L12.0025 19.28Z" fill="#FF0401"/>
</g>
</g>
</g>
<defs>
<clipPath id="clip0_12_114">
<rect width="30" height="30" fill="white"/>
</clipPath>
</defs>
</svg>
