<svg width="25" height="25" viewBox="0 0 25 25" fill="none" xmlns="http://www.w3.org/2000/svg">
<g id="akar-icons:instagram-fill">
<g id="Group">
<path id="Vector" fill-rule="evenodd" clip-rule="evenodd" d="M7.77606 1.11041C8.99794 1.05416 9.38752 1.04166 12.5 1.04166C15.6125 1.04166 16.0021 1.0552 17.2229 1.11041C18.4438 1.16561 19.2771 1.36041 20.0063 1.6427C20.7698 1.93124 21.4625 2.38228 22.0354 2.96561C22.6188 3.53749 23.0688 4.22916 23.3563 4.99374C23.6396 5.72291 23.8334 6.55624 23.8896 7.77499C23.9459 8.99895 23.9584 9.38853 23.9584 12.5C23.9584 15.6125 23.9448 16.0021 23.8896 17.2239C23.8344 18.4427 23.6396 19.276 23.3563 20.0052C23.0688 20.7699 22.618 21.4627 22.0354 22.0354C21.4625 22.6187 20.7698 23.0687 20.0063 23.3562C19.2771 23.6396 18.4438 23.8333 17.225 23.8896C16.0021 23.9458 15.6125 23.9583 12.5 23.9583C9.38752 23.9583 8.99794 23.9448 7.77606 23.8896C6.55731 23.8344 5.72398 23.6396 4.99481 23.3562C4.23015 23.0687 3.53733 22.618 2.9646 22.0354C2.38167 21.4632 1.93056 20.7707 1.64273 20.0062C1.36044 19.2771 1.16669 18.4437 1.11044 17.225C1.05419 16.001 1.04169 15.6114 1.04169 12.5C1.04169 9.38749 1.05523 8.99791 1.11044 7.77707C1.16565 6.55624 1.36044 5.72291 1.64273 4.99374C1.93098 4.22924 2.38244 3.53677 2.96565 2.96457C3.53756 2.38176 4.22968 1.93066 4.99377 1.6427C5.72294 1.36041 6.55627 1.16666 7.77502 1.11041H7.77606ZM17.1302 3.17291C15.9219 3.1177 15.5594 3.10624 12.5 3.10624C9.44065 3.10624 9.07815 3.1177 7.86981 3.17291C6.7521 3.22395 6.14585 3.41041 5.74169 3.5677C5.20731 3.77603 4.82502 4.02291 4.42398 4.42395C4.04382 4.79379 3.75125 5.24403 3.56773 5.74166C3.41044 6.14582 3.22398 6.75207 3.17294 7.86978C3.11773 9.07811 3.10627 9.44061 3.10627 12.5C3.10627 15.5594 3.11773 15.9219 3.17294 17.1302C3.22398 18.2479 3.41044 18.8542 3.56773 19.2583C3.75106 19.7552 4.04377 20.2062 4.42398 20.576C4.79377 20.9562 5.24481 21.2489 5.74169 21.4323C6.14585 21.5896 6.7521 21.776 7.86981 21.8271C9.07815 21.8823 9.4396 21.8937 12.5 21.8937C15.5604 21.8937 15.9219 21.8823 17.1302 21.8271C18.2479 21.776 18.8542 21.5896 19.2584 21.4323C19.7927 21.2239 20.175 20.9771 20.5761 20.576C20.9563 20.2062 21.249 19.7552 21.4323 19.2583C21.5896 18.8542 21.7761 18.2479 21.8271 17.1302C21.8823 15.9219 21.8938 15.5594 21.8938 12.5C21.8938 9.44061 21.8823 9.07811 21.8271 7.86978C21.7761 6.75207 21.5896 6.14582 21.4323 5.74166C21.224 5.20728 20.9771 4.82499 20.5761 4.42395C20.2062 4.04381 19.756 3.75125 19.2584 3.5677C18.8542 3.41041 18.2479 3.22395 17.1302 3.17291ZM11.0365 16.0323C11.8538 16.3725 12.764 16.4184 13.6114 16.1622C14.4589 15.906 15.1911 15.3634 15.6829 14.6273C16.1748 13.8912 16.3959 13.0071 16.3084 12.1261C16.2209 11.2451 15.8302 10.4218 15.2031 9.79686C14.8034 9.39736 14.32 9.09146 13.7879 8.90118C13.2557 8.71091 12.688 8.64099 12.1255 8.69646C11.5631 8.75194 11.02 8.93142 10.5352 9.222C10.0505 9.51258 9.63621 9.90701 9.32221 10.3769C9.00821 10.8468 8.8023 11.3805 8.71931 11.9395C8.63631 12.4986 8.6783 13.069 8.84225 13.6099C9.0062 14.1508 9.28802 14.6485 9.66744 15.0674C10.0469 15.4863 10.5144 15.8158 11.0365 16.0323ZM8.33544 8.33541C8.88234 7.78851 9.5316 7.35468 10.2462 7.0587C10.9607 6.76272 11.7266 6.61038 12.5 6.61038C13.2735 6.61038 14.0393 6.76272 14.7539 7.0587C15.4684 7.35468 16.1177 7.78851 16.6646 8.33541C17.2115 8.88231 17.6453 9.53157 17.9413 10.2461C18.2373 10.9607 18.3896 11.7266 18.3896 12.5C18.3896 13.2734 18.2373 14.0393 17.9413 14.7538C17.6453 15.4684 17.2115 16.1177 16.6646 16.6646C15.5601 17.7691 14.062 18.3896 12.5 18.3896C10.938 18.3896 9.43995 17.7691 8.33544 16.6646C7.23092 15.5601 6.61041 14.062 6.61041 12.5C6.61041 10.938 7.23092 9.43992 8.33544 8.33541ZM19.6959 7.48749C19.8314 7.35964 19.9399 7.20591 20.0149 7.03538C20.09 6.86485 20.13 6.681 20.1327 6.49471C20.1355 6.30842 20.1008 6.12348 20.0307 5.95083C19.9607 5.77819 19.8567 5.62136 19.725 5.48961C19.5932 5.35787 19.4364 5.2539 19.2638 5.18386C19.0911 5.11382 18.9062 5.07913 18.7199 5.08185C18.5336 5.08456 18.3497 5.12463 18.1792 5.19967C18.0087 5.27472 17.8549 5.38321 17.7271 5.51874C17.4785 5.78231 17.3423 6.13241 17.3476 6.49471C17.3529 6.85701 17.4992 7.20299 17.7554 7.4592C18.0116 7.71541 18.3576 7.86169 18.7199 7.86697C19.0822 7.87225 19.4323 7.73612 19.6959 7.48749Z" fill="white"/>
</g>
</g>
</svg>
