<svg width="63" height="32" viewBox="0 0 63 32" fill="none" xmlns="http://www.w3.org/2000/svg">
<g id="Logo Shapes 54">
<g id="Group">
<path id="Vector" d="M51.3064 14.9901L39.612 31.4208H18.2697L31.5081 12.8257L40.6355 0L47.0816 9.05987C47.0865 9.07014 47.0973 9.0809 47.1022 9.09117L47.6963 9.92249L51.3064 14.9901Z" fill="url(#paint0_linear_9_50)"/>
<path id="Vector_2" d="M63 31.4208H43.4187C43.4191 31.4166 43.421 31.4128 43.4241 31.41H43.429L53.1963 17.6757H53.2017C53.2046 17.6729 53.2066 17.6693 53.2066 17.6654L63 31.4208Z" fill="#9A3D2D"/>
<path id="Vector_3" d="M31.5073 12.8262L18.2693 31.4208H0.00476074L22.377 0.000488281L25.4714 4.34974C25.4763 4.35512 25.4817 4.35512 25.4817 4.36001C25.4817 4.3649 25.4866 4.36539 25.4866 4.36539L30.9444 12.0355L31.5073 12.8262Z" fill="url(#paint1_linear_9_50)"/>
<g id="Group_2" style="mix-blend-mode:multiply" opacity="0.2">
<g id="Vector_4" style="mix-blend-mode:multiply" opacity="0.2">
<path d="M31.5071 12.8263L18.2692 31.4209H13.1497L29.3946 9.85944L31.5071 12.8263Z" fill="white"/>
</g>
</g>
<g id="Group_3" style="mix-blend-mode:screen" opacity="0.3">
<g id="Vector_5" style="mix-blend-mode:screen" opacity="0.3">
<path d="M43.6356 7.77972L28.2807 29.3548H22.2791L40.6365 3.56445L43.6356 7.77972Z" fill="white"/>
</g>
</g>
<g id="Group_4" style="mix-blend-mode:screen" opacity="0.3">
<g id="Vector_6" style="mix-blend-mode:screen" opacity="0.3">
<path d="M55.3299 24.2104L51.6726 29.3553H47.4216L53.2067 21.2304L55.3299 24.2104Z" fill="white"/>
</g>
</g>
<g id="Group_5" style="mix-blend-mode:screen" opacity="0.3">
<g id="Vector_7" style="mix-blend-mode:screen" opacity="0.3">
<path d="M24.9733 7.21487L9.21932 29.3548H4.01282L22.3771 3.56488L24.9733 7.21487Z" fill="white"/>
</g>
</g>
<g id="Group_6" style="mix-blend-mode:multiply" opacity="0.25">
<g id="Vector_8" style="mix-blend-mode:multiply" opacity="0.25">
<path d="M51.3058 14.9901L39.6116 31.4209H21.75C23.2376 31.3274 24.7329 31.281 26.218 31.214C27.7032 31.147 29.1932 31.1162 30.6808 31.0644L35.1435 30.9763L39.349 30.9245L42.1172 27.0124L45.0615 22.9219C46.0586 21.5683 47.0396 20.2049 48.0445 18.8631C49.0104 17.562 49.9831 16.2673 50.963 14.9789C50.4207 14.1627 49.8872 13.3363 49.3493 12.5152C48.7756 11.6321 48.2025 10.7548 47.6445 9.86041C47.6625 9.87953 47.6789 9.90012 47.6934 9.92203L51.3058 14.9901Z" fill="white"/>
</g>
</g>
<g id="Group_7" style="mix-blend-mode:multiply" opacity="0.25">
<g id="Vector_9" style="mix-blend-mode:multiply" opacity="0.25">
<path d="M63 31.4209H43.4187C44.2349 31.3588 45.051 31.3123 45.8672 31.2742L48.3152 31.15C49.9424 31.0884 51.5728 31.0385 53.2051 31.0003C54.8374 30.9642 56.4697 30.9333 58.1021 30.9226C59.4087 30.9177 60.7104 30.9074 62.0171 30.9074C61.3921 30.0292 60.774 29.1442 60.1627 28.2526C59.3627 27.0953 58.5705 25.9331 57.7866 24.766L56.6208 23.0099C56.2335 22.4163 55.8384 21.8363 55.4638 21.2382C54.7098 20.0504 53.9352 18.8729 53.2066 17.6641L63 31.4209Z" fill="white"/>
</g>
</g>
<g id="Group_8" style="mix-blend-mode:multiply" opacity="0.25">
<g id="Vector_10" style="mix-blend-mode:multiply" opacity="0.25">
<path d="M31.5073 12.8263L18.2693 31.4209H0.00476074C1.52852 31.3378 3.04737 31.2913 4.57113 31.2346C6.0949 31.1779 7.61327 31.1314 9.13703 31.0952L13.7034 31.0023L18.016 30.9456C19.0546 29.4473 20.1133 27.9626 21.1618 26.4775C22.2567 24.9176 23.3726 23.3782 24.4778 21.8319C25.5829 20.2857 26.7096 18.7482 27.8304 17.2088C28.8994 15.7369 29.9894 14.2801 31.074 12.8131C30.1546 11.4497 29.2251 10.0913 28.3263 8.71227C27.3756 7.26578 26.4098 5.83005 25.4851 4.36304L30.9444 12.0356L31.5073 12.8263Z" fill="white"/>
</g>
</g>
<g id="Group_9" style="mix-blend-mode:screen" opacity="0.5">
<g id="Vector_11" style="mix-blend-mode:screen" opacity="0.5">
<path d="M47.081 9.0603C45.924 7.6143 44.8135 6.14238 43.6824 4.68025C43.1088 3.94184 42.5577 3.19806 41.9982 2.45428L40.65 0.651298C39.8393 1.83421 39.0334 3.01713 38.2123 4.19466C37.293 5.51205 36.3839 6.83531 35.4538 8.14635L32.6665 12.0824L29.8566 15.9974C27.9661 18.5955 26.0707 21.1936 24.144 23.7663C23.1728 25.047 22.2173 26.3385 21.2305 27.6089C20.2437 28.8794 19.2744 30.166 18.271 31.4232L31.5095 12.8281L40.6368 0.00238037L47.081 9.0603Z" fill="white"/>
</g>
</g>
<g id="Group_10" style="mix-blend-mode:screen" opacity="0.5">
<g id="Vector_12" style="mix-blend-mode:screen" opacity="0.5">
<path d="M43.4243 31.4105H43.4293L43.4187 31.4216C43.4191 31.4174 43.4211 31.4134 43.4243 31.4105Z" fill="white"/>
</g>
</g>
<g id="Group_11" style="mix-blend-mode:screen" opacity="0.5">
<g id="Vector_13" style="mix-blend-mode:screen" opacity="0.5">
<path d="M53.2022 17.6762C53.1455 17.7897 52.6858 18.7095 51.921 19.9853C51.5132 20.6699 51.0276 21.4572 50.4799 22.2837C50.206 22.6915 49.9327 23.1257 49.6329 23.5492C49.3332 23.9727 49.0339 24.4118 48.734 24.8407C48.4239 25.2691 48.1139 25.6979 47.8049 26.116C47.5051 26.5346 47.1848 26.9376 46.8855 27.3302C46.2811 28.1127 45.7026 28.8383 45.1911 29.4428C44.2356 30.5841 43.5123 31.323 43.4307 31.4105L53.1983 17.6762H53.2022Z" fill="white"/>
</g>
</g>
<g id="Group_12" style="mix-blend-mode:screen" opacity="0.5">
<g id="Vector_14" style="mix-blend-mode:screen" opacity="0.5">
<path d="M25.4696 4.34992C24.4207 3.05845 23.4157 1.73617 22.3888 0.424643C21.5624 1.66917 20.736 2.91859 19.889 4.15383C18.9902 5.48653 18.0811 6.81047 17.1618 8.12557C16.2527 9.45323 15.3226 10.7662 14.3984 12.0773C13.4742 13.3883 12.5402 14.7013 11.5988 16.003C9.72884 18.6163 7.82792 21.2092 5.89599 23.7817C4.93557 25.0678 3.96441 26.3544 2.98296 27.6248C1.99125 28.8904 1.01518 30.1711 0 31.4215L22.3771 0.000671387L25.4696 4.34992Z" fill="white"/>
</g>
</g>
</g>
</g>
<defs>
<linearGradient id="paint0_linear_9_50" x1="29.8985" y1="15.9932" x2="42.1461" y2="24.7014" gradientUnits="userSpaceOnUse">
<stop stop-color="#F55233"/>
<stop offset="1" stop-color="#A53826"/>
</linearGradient>
<linearGradient id="paint1_linear_9_50" x1="11.4087" y1="15.8678" x2="23.0139" y2="23.7824" gradientUnits="userSpaceOnUse">
<stop stop-color="#FCC400"/>
<stop offset="0.162" stop-color="#FBC000"/>
<stop offset="0.307" stop-color="#FBB500"/>
<stop offset="0.446" stop-color="#FBA300"/>
<stop offset="0.581" stop-color="#FA8900"/>
<stop offset="0.712" stop-color="#FA6800"/>
<stop offset="0.842" stop-color="#F93F00"/>
<stop offset="0.967" stop-color="#F81000"/>
<stop offset="1" stop-color="#F80300"/>
</linearGradient>
</defs>
</svg>
