<svg width="15" height="30" viewBox="0 0 15 30" fill="none" xmlns="http://www.w3.org/2000/svg">
<path id="Vector" d="M12.1614 29.5833C11.8502 29.5844 11.5427 29.5157 11.2615 29.3823C10.9803 29.2489 10.7325 29.0542 10.5364 28.8125L0.473933 16.3125C0.167513 15.9397 0 15.4721 0 14.9896C0 14.507 0.167513 14.0394 0.473933 13.6667L10.8906 1.16667C11.2442 0.74122 11.7524 0.473669 12.3033 0.422878C12.8541 0.372087 13.4026 0.542216 13.8281 0.895838C14.2535 1.24946 14.5211 1.75761 14.5719 2.3085C14.6227 2.85939 14.4526 3.40789 14.0989 3.83334L4.78643 15L13.7864 26.1667C14.0412 26.4725 14.203 26.8448 14.2528 27.2397C14.3025 27.6346 14.2381 28.0355 14.0672 28.395C13.8962 28.7544 13.6259 29.0573 13.2881 29.2679C12.9504 29.4785 12.5594 29.588 12.1614 29.5833Z" fill="white"/>
</svg>
