<svg width="15" height="30" viewBox="0 0 15 30" fill="none" xmlns="http://www.w3.org/2000/svg">
<path id="Vector" d="M2.41926 29.5833C2.7305 29.5844 3.03802 29.5157 3.31922 29.3823C3.60043 29.2489 3.84818 29.0542 4.04426 28.8125L14.1068 16.3125C14.4132 15.9397 14.5807 15.4721 14.5807 14.9896C14.5807 14.507 14.4132 14.0394 14.1068 13.6667L3.69009 1.16667C3.33647 0.74122 2.82832 0.473669 2.27743 0.422878C1.72654 0.372087 1.17804 0.542216 0.752591 0.895838C0.32714 1.24946 0.0595894 1.75761 0.0087986 2.3085C-0.0419922 2.85939 0.128136 3.40789 0.481757 3.83334L9.79426 15L0.794258 26.1667C0.539502 26.4725 0.377675 26.8448 0.327926 27.2397C0.278176 27.6346 0.342587 28.0355 0.513536 28.395C0.684486 28.7544 0.95482 29.0573 1.29255 29.2679C1.63028 29.4785 2.02127 29.588 2.41926 29.5833Z" fill="white"/>
</svg>
